<svg xmlns="http://www.w3.org/2000/svg" width="137" height="47" viewBox="0 0 137 47">
  <g fill="none" fill-rule="evenodd">
    <path fill="#778899" d="M37.0029,16.0745 L37.0029,13.1925 L39.0489,13.1925 C39.642903,13.1925 40.0773986,13.3153321 40.3524,13.561 C40.6274014,13.8066679 40.7649,14.1641643 40.7649,14.6335 C40.7649,15.1028357 40.6274014,15.4621654 40.3524,15.7115 C40.0773986,15.9608346 39.642903,16.0818334 39.0489,16.0745 L37.0029,16.0745 Z M35.9579,12.3125 L35.9579,20.1665 L37.0029,20.1665 L37.0029,16.9545 L39.4009,16.9545 C40.192904,16.9618334 40.792398,16.7601687 41.1994,16.3495 C41.606402,15.9388313 41.8099,15.366837 41.8099,14.6335 C41.8099,13.900163 41.606402,13.330002 41.1994,12.923 C40.792398,12.515998 40.192904,12.3125 39.4009,12.3125 L35.9579,12.3125 Z M43.6139,17.3285 C43.6139,16.9838316 43.6597329,16.677668 43.7514,16.41 C43.8430671,16.142332 43.9695659,15.9168342 44.1309,15.7335 C44.2922341,15.5501657 44.4810656,15.4108338 44.6974,15.3155 C44.9137344,15.2201662 45.1428988,15.1725 45.3849,15.1725 C45.6269012,15.1725 45.8560656,15.2201662 46.0724,15.3155 C46.2887344,15.4108338 46.4775659,15.5501657 46.6389,15.7335 C46.8002341,15.9168342 46.9267329,16.142332 47.0184,16.41 C47.1100671,16.677668 47.1559,16.9838316 47.1559,17.3285 C47.1559,17.6731684 47.1100671,17.979332 47.0184,18.247 C46.9267329,18.514668 46.8002341,18.7383324 46.6389,18.918 C46.4775659,19.0976676 46.2887344,19.2351662 46.0724,19.3305 C45.8560656,19.4258338 45.6269012,19.4735 45.3849,19.4735 C45.1428988,19.4735 44.9137344,19.4258338 44.6974,19.3305 C44.4810656,19.2351662 44.2922341,19.0976676 44.1309,18.918 C43.9695659,18.7383324 43.8430671,18.514668 43.7514,18.247 C43.6597329,17.979332 43.6139,17.6731684 43.6139,17.3285 Z M42.6239,17.3285 C42.6239,17.7465021 42.6825661,18.1351649 42.7999,18.4945 C42.9172339,18.8538351 43.0932322,19.167332 43.3279,19.435 C43.5625678,19.702668 43.8522316,19.9116659 44.1969,20.062 C44.5415684,20.2123341 44.9375644,20.2875 45.3849,20.2875 C45.8395689,20.2875 46.2373983,20.2123341 46.5784,20.062 C46.9194017,19.9116659 47.2072322,19.702668 47.4419,19.435 C47.6765678,19.167332 47.8525661,18.8538351 47.9699,18.4945 C48.0872339,18.1351649 48.1459,17.7465021 48.1459,17.3285 C48.1459,16.9104979 48.0872339,16.5200018 47.9699,16.157 C47.8525661,15.7939982 47.6765678,15.478668 47.4419,15.211 C47.2072322,14.943332 46.9194017,14.7325008 46.5784,14.5785 C46.2373983,14.4244992 45.8395689,14.3475 45.3849,14.3475 C44.9375644,14.3475 44.5415684,14.4244992 44.1969,14.5785 C43.8522316,14.7325008 43.5625678,14.943332 43.3279,15.211 C43.0932322,15.478668 42.9172339,15.7939982 42.7999,16.157 C42.6825661,16.5200018 42.6239,16.9104979 42.6239,17.3285 Z M54.8779,20.1665 L56.6929,14.4795 L55.7249,14.4795 L54.4489,19.1325 L54.4269,19.1325 L53.2389,14.4795 L52.2159,14.4795 L51.0719,19.1325 L51.0499,19.1325 L49.7629,14.4795 L48.7289,14.4795 L50.5549,20.1665 L51.5669,20.1665 L52.7109,15.6455 L52.7329,15.6455 L53.8879,20.1665 L54.8779,20.1665 Z M61.5329,16.7785 L58.2659,16.7785 C58.2805667,16.5584989 58.3282329,16.3513343 58.4089,16.157 C58.4895671,15.9626657 58.599566,15.7921674 58.7389,15.6455 C58.878234,15.4988326 59.0450657,15.3833338 59.2394,15.299 C59.4337343,15.2146662 59.6518988,15.1725 59.8939,15.1725 C60.1285678,15.1725 60.3430657,15.2146662 60.5374,15.299 C60.7317343,15.3833338 60.9003993,15.4969993 61.0434,15.64 C61.1864007,15.7830007 61.3000662,15.953499 61.3844,16.1515 C61.4687338,16.349501 61.5182333,16.5584989 61.5329,16.7785 Z M62.4349,18.3625 L61.5109,18.3625 C61.4302329,18.7365019 61.2634013,19.0151658 61.0104,19.1985 C60.7573987,19.3818342 60.432902,19.4735 60.0369,19.4735 C59.7288985,19.4735 59.4612345,19.4221672 59.2339,19.3195 C59.0065655,19.2168328 58.8195674,19.0793342 58.6729,18.907 C58.5262326,18.7346658 58.4199003,18.5366678 58.3539,18.313 C58.2878997,18.0893322 58.2585666,17.8528346 58.2659,17.6035 L62.5229,17.6035 C62.5375667,17.2588316 62.5064004,16.8958352 62.4294,16.5145 C62.3523996,16.1331648 62.2130677,15.7811683 62.0114,15.4585 C61.8097323,15.1358317 61.5420683,14.870001 61.2084,14.661 C60.8747317,14.451999 60.4549025,14.3475 59.9489,14.3475 C59.5602314,14.3475 59.202735,14.4208326 58.8764,14.5675 C58.550065,14.7141674 58.2677345,14.9194987 58.0294,15.1835 C57.7910655,15.4475013 57.6059007,15.7591649 57.4739,16.1185 C57.3418993,16.4778351 57.2759,16.8738312 57.2759,17.3065 C57.2905667,17.7391688 57.3547328,18.1388315 57.4684,18.5055 C57.5820672,18.8721685 57.7525655,19.1874987 57.9799,19.4515 C58.2072345,19.7155013 58.4877317,19.9208326 58.8214,20.0675 C59.1550683,20.2141674 59.5492311,20.2875 60.0039,20.2875 C60.6492366,20.2875 61.1845645,20.1261683 61.6099,19.8035 C62.0352355,19.4808317 62.3102327,19.0005032 62.4349,18.3625 Z M63.4579,14.4795 L63.4579,20.1665 L64.3929,20.1665 L64.3929,17.6365 C64.3929,17.2698315 64.4295663,16.9453347 64.5029,16.663 C64.5762337,16.3806653 64.6935659,16.140501 64.8549,15.9425 C65.0162341,15.744499 65.2288987,15.5941672 65.4929,15.4915 C65.7569013,15.3888328 66.0758981,15.3375 66.4499,15.3375 L66.4499,14.3475 C65.9438975,14.3328333 65.5259017,14.4354989 65.1959,14.6555 C64.8658984,14.8755011 64.5872345,15.2164977 64.3599,15.6785 L64.3379,15.6785 L64.3379,14.4795 L63.4579,14.4795 Z M70.9049,16.7785 L67.6379,16.7785 C67.6525667,16.5584989 67.7002329,16.3513343 67.7809,16.157 C67.8615671,15.9626657 67.971566,15.7921674 68.1109,15.6455 C68.250234,15.4988326 68.4170657,15.3833338 68.6114,15.299 C68.8057343,15.2146662 69.0238988,15.1725 69.2659,15.1725 C69.5005678,15.1725 69.7150657,15.2146662 69.9094,15.299 C70.1037343,15.3833338 70.2723993,15.4969993 70.4154,15.64 C70.5584007,15.7830007 70.6720662,15.953499 70.7564,16.1515 C70.8407338,16.349501 70.8902333,16.5584989 70.9049,16.7785 Z M71.8069,18.3625 L70.8829,18.3625 C70.8022329,18.7365019 70.6354013,19.0151658 70.3824,19.1985 C70.1293987,19.3818342 69.804902,19.4735 69.4089,19.4735 C69.1008985,19.4735 68.8332345,19.4221672 68.6059,19.3195 C68.3785655,19.2168328 68.1915674,19.0793342 68.0449,18.907 C67.8982326,18.7346658 67.7919003,18.5366678 67.7259,18.313 C67.6598997,18.0893322 67.6305666,17.8528346 67.6379,17.6035 L71.8949,17.6035 C71.9095667,17.2588316 71.8784004,16.8958352 71.8014,16.5145 C71.7243996,16.1331648 71.5850677,15.7811683 71.3834,15.4585 C71.1817323,15.1358317 70.9140683,14.870001 70.5804,14.661 C70.2467317,14.451999 69.8269025,14.3475 69.3209,14.3475 C68.9322314,14.3475 68.574735,14.4208326 68.2484,14.5675 C67.922065,14.7141674 67.6397345,14.9194987 67.4014,15.1835 C67.1630655,15.4475013 66.9779007,15.7591649 66.8459,16.1185 C66.7138993,16.4778351 66.6479,16.8738312 66.6479,17.3065 C66.6625667,17.7391688 66.7267328,18.1388315 66.8404,18.5055 C66.9540672,18.8721685 67.1245655,19.1874987 67.3519,19.4515 C67.5792345,19.7155013 67.8597317,19.9208326 68.1934,20.0675 C68.5270683,20.2141674 68.9212311,20.2875 69.3759,20.2875 C70.0212366,20.2875 70.5565645,20.1261683 70.9819,19.8035 C71.4072355,19.4808317 71.6822327,19.0005032 71.8069,18.3625 Z M73.5449,17.3725 C73.5449,17.0938319 73.574233,16.8225013 73.6329,16.5585 C73.691567,16.2944987 73.7868993,16.0598344 73.9189,15.8545 C74.0509007,15.6491656 74.2268989,15.4841673 74.4469,15.3595 C74.6669011,15.2348327 74.9345651,15.1725 75.2499,15.1725 C75.5725683,15.1725 75.8475655,15.2329994 76.0749,15.354 C76.3022345,15.4750006 76.4873993,15.634499 76.6304,15.8325 C76.7734007,16.030501 76.8778997,16.2596654 76.9439,16.52 C77.0099003,16.7803346 77.0429,17.0498319 77.0429,17.3285 C77.0429,17.5925013 77.0117336,17.852832 76.9494,18.1095 C76.8870664,18.3661679 76.786234,18.5953323 76.6469,18.797 C76.507566,18.9986677 76.3279011,19.1618327 76.1079,19.2865 C75.8878989,19.4111673 75.6202349,19.4735 75.3049,19.4735 C75.0042318,19.4735 74.7420678,19.4148339 74.5184,19.2975 C74.2947322,19.1801661 74.1114007,19.022501 73.9684,18.8245 C73.8253993,18.626499 73.719067,18.4010013 73.6494,18.148 C73.579733,17.8949987 73.5449,17.6365013 73.5449,17.3725 Z M77.9449,20.1665 L77.9449,12.3125 L77.0099,12.3125 L77.0099,15.2385 L76.9879,15.2385 C76.8852328,15.0698325 76.7587341,14.9286672 76.6084,14.815 C76.4580659,14.7013328 76.2985675,14.609667 76.1299,14.54 C75.9612325,14.470333 75.7925675,14.4208335 75.6239,14.3915 C75.4552325,14.3621665 75.2975674,14.3475 75.1509,14.3475 C74.7182312,14.3475 74.338735,14.4263325 74.0124,14.584 C73.686065,14.7416675 73.4147344,14.954332 73.1984,15.222 C72.9820656,15.489668 72.8207339,15.8031649 72.7144,16.1625 C72.6080661,16.5218351 72.5549,16.9031647 72.5549,17.3065 C72.5549,17.7098353 72.6098995,18.0911649 72.7199,18.4505 C72.8299005,18.8098351 72.9930656,19.1251653 73.2094,19.3965 C73.4257344,19.6678347 73.697065,19.8841659 74.0234,20.0455 C74.349735,20.2068341 74.7328978,20.2875 75.1729,20.2875 C75.568902,20.2875 75.9318983,20.217834 76.2619,20.0785 C76.5919016,19.939166 76.8338992,19.7118349 76.9879,19.3965 L77.0099,19.3965 L77.0099,20.1665 L77.9449,20.1665 Z M82.4769,12.3125 L82.4769,20.1665 L83.4119,20.1665 L83.4119,19.4075 L83.4339,19.4075 C83.5365672,19.5761675 83.6630659,19.7173328 83.8134,19.831 C83.9637341,19.9446672 84.1232325,20.0344997 84.2919,20.1005 C84.4605675,20.1665003 84.6310658,20.2141665 84.8034,20.2435 C84.9757342,20.2728335 85.131566,20.2875 85.2709,20.2875 C85.7035688,20.2875 86.083065,20.2105008 86.4094,20.0565 C86.735735,19.9024992 87.0070656,19.691668 87.2234,19.424 C87.4397344,19.156332 87.6010661,18.8428351 87.7074,18.4835 C87.8137339,18.1241649 87.8669,17.7428354 87.8669,17.3395 C87.8669,16.9361646 87.8119005,16.5548351 87.7019,16.1955 C87.5918994,15.8361649 87.4287344,15.5190014 87.2124,15.244 C86.9960656,14.9689986 86.724735,14.7508341 86.3984,14.5895 C86.072065,14.4281659 85.6889022,14.3475 85.2489,14.3475 C84.852898,14.3475 84.4899016,14.4189993 84.1599,14.562 C83.8298983,14.7050007 83.5879008,14.9341651 83.4339,15.2495 L83.4119,15.2495 L83.4119,12.3125 L82.4769,12.3125 Z M86.8769,17.2735 C86.8769,17.5521681 86.847567,17.8234987 86.7889,18.0875 C86.730233,18.3515013 86.6349007,18.5861656 86.5029,18.7915 C86.3708993,18.9968344 86.1967344,19.1618327 85.9804,19.2865 C85.7640656,19.4111673 85.4945683,19.4735 85.1719,19.4735 C84.8492317,19.4735 84.5742345,19.4130006 84.3469,19.292 C84.1195655,19.1709994 83.9344007,19.011501 83.7914,18.8135 C83.6483993,18.615499 83.5439003,18.3863346 83.4779,18.126 C83.4118997,17.8656654 83.3789,17.5961681 83.3789,17.3175 C83.3789,17.0534987 83.4100664,16.7931679 83.4724,16.5365 C83.5347336,16.279832 83.635566,16.0506677 83.7749,15.849 C83.914234,15.6473323 84.0938989,15.4841673 84.3139,15.3595 C84.5339011,15.2348327 84.8015651,15.1725 85.1169,15.1725 C85.4175682,15.1725 85.6797322,15.2311661 85.9034,15.3485 C86.1270678,15.4658339 86.3103993,15.623499 86.4534,15.8215 C86.5964007,16.019501 86.702733,16.2449987 86.7724,16.498 C86.842067,16.7510013 86.8769,17.0094987 86.8769,17.2735 Z M91.1999,20.9255 C91.0898994,21.2041681 90.9817339,21.4388324 90.8754,21.6295 C90.7690661,21.8201676 90.651734,21.9759994 90.5234,22.097 C90.395066,22.2180006 90.2520675,22.3059997 90.0944,22.361 C89.9367325,22.4160003 89.7552344,22.4435 89.5499,22.4435 C89.4398994,22.4435 89.3299005,22.4361667 89.2199,22.4215 C89.1098995,22.4068333 89.0035672,22.3811668 88.9009,22.3445 L88.9009,21.4865 C88.9815671,21.5231668 89.0750661,21.5543332 89.1814,21.58 C89.2877339,21.6056668 89.3775663,21.6185 89.4509,21.6185 C89.6415676,21.6185 89.801066,21.5726671 89.9294,21.481 C90.057734,21.3893329 90.1548997,21.2591675 90.2209,21.0905 L90.6059,20.1335 L88.3509,14.4795 L89.4069,14.4795 L91.0679,19.1325 L91.0899,19.1325 L92.6849,14.4795 L93.6749,14.4795 L91.1999,20.9255 Z"/>
    <path fill="#556677" d="M38.164,29.8745 L38.164,26.8785 L39.872,26.8785 C40.1240013,26.8785 40.3666655,26.8971665 40.6,26.9345 C40.8333345,26.9718335 41.0386658,27.0441661 41.216,27.1515 C41.3933342,27.2588339 41.5356661,27.410499 41.643,27.6065 C41.7503339,27.802501 41.804,28.0591651 41.804,28.3765 C41.804,28.6938349 41.7503339,28.950499 41.643,29.1465 C41.5356661,29.342501 41.3933342,29.4941661 41.216,29.6015 C41.0386658,29.7088339 40.8333345,29.7811665 40.6,29.8185 C40.3666655,29.8558335 40.1240013,29.8745 39.872,29.8745 L38.164,29.8745 Z M35.966,25.1705 L35.966,35.1665 L38.164,35.1665 L38.164,31.5825 L40.474,31.5825 C41.0993365,31.5825 41.6313311,31.4915009 42.07,31.3095 C42.5086689,31.1274991 42.8656653,30.8871682 43.141,30.5885 C43.4163347,30.2898318 43.6169994,29.9468353 43.743,29.5595 C43.8690006,29.1721647 43.932,28.7778353 43.932,28.3765 C43.932,27.9658313 43.8690006,27.5691686 43.743,27.1865 C43.6169994,26.8038314 43.4163347,26.4631682 43.141,26.1645 C42.8656653,25.8658318 42.5086689,25.6255009 42.07,25.4435 C41.6313311,25.2614991 41.0993365,25.1705 40.474,25.1705 L35.966,25.1705 Z M47.138,26.8085 L47.138,25.1705 L45.15,25.1705 L45.15,26.8085 L47.138,26.8085 Z M45.15,27.9285 L45.15,35.1665 L47.138,35.1665 L47.138,27.9285 L45.15,27.9285 Z M48.706,27.9285 L48.706,35.1665 L50.694,35.1665 L50.694,31.3725 C50.694,30.635163 50.8153321,30.1055016 51.058,29.7835 C51.3006679,29.4614984 51.692664,29.3005 52.234,29.3005 C52.7100024,29.3005 53.0413324,29.4474985 53.228,29.7415 C53.4146676,30.0355015 53.508,30.4811637 53.508,31.0785 L53.508,35.1665 L55.496,35.1665 L55.496,30.7145 C55.496,30.2664978 55.4563337,29.8581685 55.377,29.4895 C55.2976663,29.1208315 55.160001,28.8081679 54.964,28.5515 C54.767999,28.294832 54.4996684,28.0941674 54.159,27.9495 C53.8183316,27.8048326 53.3820027,27.7325 52.85,27.7325 C52.4299979,27.7325 52.0193353,27.8281657 51.618,28.0195 C51.2166647,28.2108343 50.8900013,28.5164979 50.638,28.9365 L50.596,28.9365 L50.596,27.9285 L48.706,27.9285 Z M63.308,29.8745 L63.308,26.8785 L65.016,26.8785 C65.2680013,26.8785 65.5106655,26.8971665 65.744,26.9345 C65.9773345,26.9718335 66.1826658,27.0441661 66.36,27.1515 C66.5373342,27.2588339 66.6796661,27.410499 66.787,27.6065 C66.8943339,27.802501 66.948,28.0591651 66.948,28.3765 C66.948,28.6938349 66.8943339,28.950499 66.787,29.1465 C66.6796661,29.342501 66.5373342,29.4941661 66.36,29.6015 C66.1826658,29.7088339 65.9773345,29.7811665 65.744,29.8185 C65.5106655,29.8558335 65.2680013,29.8745 65.016,29.8745 L63.308,29.8745 Z M61.11,25.1705 L61.11,35.1665 L63.308,35.1665 L63.308,31.5825 L65.618,31.5825 C66.2433365,31.5825 66.7753311,31.4915009 67.214,31.3095 C67.6526689,31.1274991 68.0096653,30.8871682 68.285,30.5885 C68.5603347,30.2898318 68.7609994,29.9468353 68.887,29.5595 C69.0130006,29.1721647 69.076,28.7778353 69.076,28.3765 C69.076,27.9658313 69.0130006,27.5691686 68.887,27.1865 C68.7609994,26.8038314 68.5603347,26.4631682 68.285,26.1645 C68.0096653,25.8658318 67.6526689,25.6255009 67.214,25.4435 C66.7753311,25.2614991 66.2433365,25.1705 65.618,25.1705 L61.11,25.1705 Z M70.154,30.1545 C70.1820001,29.687831 70.2986656,29.3005015 70.504,28.9925 C70.7093344,28.6844985 70.9706651,28.4371676 71.288,28.2505 C71.6053349,28.0638324 71.9623313,27.9308337 72.359,27.8515 C72.7556686,27.7721663 73.1546647,27.7325 73.556,27.7325 C73.9200018,27.7325 74.2886648,27.7581664 74.662,27.8095 C75.0353352,27.8608336 75.3759985,27.9611659 75.684,28.1105 C75.9920015,28.2598341 76.243999,28.4674987 76.44,28.7335 C76.636001,28.9995013 76.734,29.3518311 76.734,29.7905 L76.734,33.5565 C76.734,33.8831683 76.7526665,34.1958318 76.79,34.4945 C76.8273335,34.7931682 76.8926662,35.0171659 76.986,35.1665 L74.97,35.1665 C74.9326665,35.0544994 74.9023335,34.9401672 74.879,34.8235 C74.8556665,34.7068327 74.8393334,34.5878339 74.83,34.4665 C74.5126651,34.7931683 74.1393355,35.0218327 73.71,35.1525 C73.2806645,35.2831673 72.8420022,35.3485 72.394,35.3485 C72.0486649,35.3485 71.7266682,35.3065004 71.428,35.2225 C71.1293318,35.1384996 70.8680011,35.0078342 70.644,34.8305 C70.4199989,34.6531658 70.2450006,34.429168 70.119,34.1585 C69.9929994,33.887832 69.93,33.5658352 69.93,33.1925 C69.93,32.7818313 70.0023326,32.4435013 70.147,32.1775 C70.2916674,31.9114987 70.4783322,31.6991675 70.707,31.5405 C70.9356678,31.3818325 71.1969985,31.2628337 71.491,31.1835 C71.7850015,31.1041663 72.0813318,31.0411669 72.38,30.9945 C72.6786682,30.9478331 72.9726652,30.9105001 73.262,30.8825 C73.5513348,30.8544999 73.8079989,30.8125003 74.032,30.7565 C74.2560011,30.7004997 74.4333327,30.6188339 74.564,30.5115 C74.6946673,30.4041661 74.7553334,30.2478344 74.746,30.0425 C74.746,29.8278323 74.7110004,29.6575006 74.641,29.5315 C74.5709997,29.4054994 74.4776672,29.3075003 74.361,29.2375 C74.2443328,29.1674996 74.1090008,29.1208334 73.955,29.0975 C73.8009992,29.0741665 73.6353342,29.0625 73.458,29.0625 C73.065998,29.0625 72.7580011,29.1464992 72.534,29.3145 C72.3099989,29.4825008 72.1793335,29.762498 72.142,30.1545 L70.154,30.1545 Z M74.746,31.6245 C74.6619996,31.699167 74.5570006,31.7574998 74.431,31.7995 C74.3049994,31.8415002 74.1696674,31.8764999 74.025,31.9045 C73.8803326,31.9325001 73.7286675,31.9558332 73.57,31.9745 C73.4113325,31.9931668 73.2526675,32.0164999 73.094,32.0445 C72.9446659,32.0725001 72.7976674,32.1098331 72.653,32.1565 C72.5083326,32.2031669 72.3823339,32.2661663 72.275,32.3455 C72.1676661,32.4248337 72.0813337,32.5251661 72.016,32.6465 C71.9506663,32.7678339 71.918,32.9218324 71.918,33.1085 C71.918,33.2858342 71.9506663,33.4351661 72.016,33.5565 C72.0813337,33.6778339 72.1699994,33.7734996 72.282,33.8435 C72.3940006,33.9135003 72.5246659,33.9624999 72.674,33.9905 C72.8233341,34.0185001 72.9773325,34.0325 73.136,34.0325 C73.528002,34.0325 73.8313323,33.9671673 74.046,33.8365 C74.2606677,33.7058327 74.4193328,33.5495009 74.522,33.3675 C74.6246672,33.1854991 74.6876666,33.0011676 74.711,32.8145 C74.7343335,32.6278324 74.746,32.4785006 74.746,32.3665 L74.746,31.6245 Z M81.844,36.0625 L84.868,27.9285 L82.81,27.9285 L81.228,32.8845 L81.2,32.8845 L79.562,27.9285 L77.448,27.9285 L79.982,34.7185 C80.0380003,34.8585007 80.066,35.0078325 80.066,35.1665 C80.066,35.3811677 80.0030006,35.5771658 79.877,35.7545 C79.7509994,35.9318342 79.5573346,36.0344999 79.296,36.0625 C79.099999,36.0718334 78.904001,36.0671668 78.708,36.0485 C78.511999,36.0298332 78.3206676,36.0111668 78.134,35.9925 L78.134,37.6305 C78.3393344,37.6491668 78.5423323,37.6654999 78.743,37.6795 C78.9436677,37.6935001 79.1466656,37.7005 79.352,37.7005 C80.0333367,37.7005 80.5653314,37.5745013 80.948,37.3225 C81.3306686,37.0704987 81.6293323,36.6505029 81.844,36.0625 Z M85.596,27.9285 L85.596,35.1665 L87.584,35.1665 L87.584,30.9665 C87.584,30.6118316 87.6353328,30.3248344 87.738,30.1055 C87.8406672,29.8861656 87.9643326,29.7181672 88.109,29.6015 C88.2536674,29.4848327 88.4029992,29.4055002 88.557,29.3635 C88.7110008,29.3214998 88.8346662,29.3005 88.928,29.3005 C89.2453349,29.3005 89.4856659,29.3541661 89.649,29.4615 C89.8123341,29.5688339 89.9289997,29.7111658 89.999,29.8885 C90.0690004,30.0658342 90.1086666,30.2594989 90.118,30.4695 C90.1273334,30.679501 90.132,30.8918323 90.132,31.1065 L90.132,35.1665 L92.12,35.1665 L92.12,31.1345 C92.12,30.9104989 92.1363332,30.6888344 92.169,30.4695 C92.2016668,30.2501656 92.2669995,30.0541675 92.365,29.8815 C92.4630005,29.7088325 92.5983325,29.5688339 92.771,29.4615 C92.9436675,29.3541661 93.1699986,29.3005 93.45,29.3005 C93.7300014,29.3005 93.9516659,29.3471662 94.115,29.4405 C94.2783342,29.5338338 94.4019996,29.6598325 94.486,29.8185 C94.5700004,29.9771675 94.6213332,30.1638323 94.64,30.3785 C94.6586668,30.5931677 94.668,30.8218321 94.668,31.0645 L94.668,35.1665 L96.656,35.1665 L96.656,30.3225 C96.656,29.855831 96.5906673,29.456835 96.46,29.1255 C96.3293327,28.794165 96.1473345,28.5258344 95.914,28.3205 C95.6806655,28.1151656 95.4006683,27.9658338 95.074,27.8725 C94.7473317,27.7791662 94.3926686,27.7325 94.01,27.7325 C93.5059975,27.7325 93.0696685,27.8538321 92.701,28.0965 C92.3323315,28.3391679 92.0406677,28.6191651 91.826,28.9365 C91.629999,28.4884978 91.3430019,28.1758342 90.965,27.9985 C90.5869981,27.8211658 90.1693356,27.7325 89.712,27.7325 C89.2359976,27.7325 88.8136685,27.8351656 88.445,28.0405 C88.0763315,28.2458344 87.7613346,28.5351648 87.5,28.9085 L87.472,28.9085 L87.472,27.9285 L85.596,27.9285 Z M103.096,30.7705 L99.862,30.7705 C99.8713334,30.6304993 99.9016664,30.4718342 99.953,30.2945 C100.004334,30.1171658 100.092999,29.9491675 100.219,29.7905 C100.345001,29.6318325 100.512999,29.4988339 100.723,29.3915 C100.933001,29.2841661 101.196665,29.2305 101.514,29.2305 C101.999336,29.2305 102.360999,29.3611654 102.599,29.6225 C102.837001,29.8838346 103.002666,30.2664975 103.096,30.7705 Z M99.862,32.0305 L105.084,32.0305 C105.121334,31.4704972 105.074667,30.9338359 104.944,30.4205 C104.813333,29.9071641 104.601001,29.4498353 104.307,29.0485 C104.012999,28.6471647 103.637336,28.3275012 103.18,28.0895 C102.722664,27.8514988 102.186003,27.7325 101.57,27.7325 C101.019331,27.7325 100.517669,27.830499 100.065,28.0265 C99.6123311,28.222501 99.2226683,28.4908316 98.896,28.8315 C98.5693317,29.1721684 98.3173342,29.575831 98.14,30.0425 C97.9626658,30.509169 97.874,31.013164 97.874,31.5545 C97.874,32.1145028 97.9603325,32.627831 98.133,33.0945 C98.3056675,33.561169 98.5506651,33.9624983 98.868,34.2985 C99.1853349,34.6345017 99.5726644,34.8934991 100.03,35.0755 C100.487336,35.2575009 101.000664,35.3485 101.57,35.3485 C102.391337,35.3485 103.09133,35.1618352 103.67,34.7885 C104.24867,34.4151648 104.677999,33.7945043 104.958,32.9265 L103.208,32.9265 C103.142666,33.1505011 102.965335,33.3628323 102.676,33.5635 C102.386665,33.7641677 102.041335,33.8645 101.64,33.8645 C101.079997,33.8645 100.650668,33.7198348 100.352,33.4305 C100.053332,33.1411652 99.8900001,32.6745032 99.862,32.0305 Z M106.26,27.9285 L106.26,35.1665 L108.248,35.1665 L108.248,31.3725 C108.248,30.635163 108.369332,30.1055016 108.612,29.7835 C108.854668,29.4614984 109.246664,29.3005 109.788,29.3005 C110.264002,29.3005 110.595332,29.4474985 110.782,29.7415 C110.968668,30.0355015 111.062,30.4811637 111.062,31.0785 L111.062,35.1665 L113.05,35.1665 L113.05,30.7145 C113.05,30.2664978 113.010334,29.8581685 112.931,29.4895 C112.851666,29.1208315 112.714001,28.8081679 112.518,28.5515 C112.321999,28.294832 112.053668,28.0941674 111.713,27.9495 C111.372332,27.8048326 110.936003,27.7325 110.404,27.7325 C109.983998,27.7325 109.573335,27.8281657 109.172,28.0195 C108.770665,28.2108343 108.444001,28.5164979 108.192,28.9365 L108.15,28.9365 L108.15,27.9285 L106.26,27.9285 Z M117.082,27.9285 L117.082,25.7585 L115.094,25.7585 L115.094,27.9285 L113.89,27.9285 L113.89,29.2585 L115.094,29.2585 L115.094,33.5285 C115.094,33.8925018 115.154666,34.1864989 115.276,34.4105 C115.397334,34.6345011 115.562999,34.8071661 115.773,34.9285 C115.983001,35.0498339 116.225665,35.1314998 116.501,35.1735 C116.776335,35.2155002 117.067998,35.2365 117.376,35.2365 C117.572001,35.2365 117.772666,35.2318334 117.978,35.2225 C118.183334,35.2131666 118.369999,35.1945001 118.538,35.1665 L118.538,33.6265 C118.444666,33.6451668 118.346667,33.6591666 118.244,33.6685 C118.141333,33.6778334 118.034001,33.6825 117.922,33.6825 C117.585998,33.6825 117.362001,33.6265006 117.25,33.5145 C117.137999,33.4024994 117.082,33.1785017 117.082,32.8425 L117.082,29.2585 L118.538,29.2585 L118.538,27.9285 L117.082,27.9285 Z M121.03,32.8145 L119.14,32.8145 C119.158667,33.2998358 119.268332,33.7034984 119.469,34.0255 C119.669668,34.3475016 119.926332,34.606499 120.239,34.8025 C120.551668,34.998501 120.908665,35.1384996 121.31,35.2225 C121.711335,35.3065004 122.121998,35.3485 122.542,35.3485 C122.952669,35.3485 123.356331,35.3088337 123.753,35.2295 C124.149669,35.1501663 124.501998,35.012501 124.81,34.8165 C125.118002,34.620499 125.367666,34.3615016 125.559,34.0395 C125.750334,33.7174984 125.846,33.3185024 125.846,32.8425 C125.846,32.5064983 125.780667,32.2241678 125.65,31.9955 C125.519333,31.7668322 125.346668,31.5755008 125.132,31.4215 C124.917332,31.2674992 124.672335,31.1438338 124.397,31.0505 C124.121665,30.9571662 123.839335,30.8778337 123.55,30.8125 C123.269999,30.7471663 122.994668,30.6865003 122.724,30.6305 C122.453332,30.5744997 122.213001,30.5115003 122.003,30.4415 C121.792999,30.3714996 121.622667,30.2805006 121.492,30.1685 C121.361333,30.0564994 121.296,29.9118342 121.296,29.7345 C121.296,29.5851659 121.333333,29.4661671 121.408,29.3775 C121.482667,29.2888329 121.573666,29.2211669 121.681,29.1745 C121.788334,29.1278331 121.907333,29.0975001 122.038,29.0835 C122.168667,29.0694999 122.289999,29.0625 122.402,29.0625 C122.756668,29.0625 123.064665,29.130166 123.326,29.2655 C123.587335,29.400834 123.732,29.6598314 123.76,30.0425 L125.65,30.0425 C125.612666,29.5944978 125.498334,29.2235015 125.307,28.9295 C125.115666,28.6354985 124.875335,28.3998342 124.586,28.2225 C124.296665,28.0451658 123.967669,27.919167 123.599,27.8445 C123.230331,27.769833 122.850002,27.7325 122.458,27.7325 C122.065998,27.7325 121.683335,27.7674996 121.31,27.8375 C120.936665,27.9075003 120.600668,28.0288325 120.302,28.2015 C120.003332,28.3741675 119.763001,28.6098318 119.581,28.9085 C119.398999,29.2071682 119.308,29.589831 119.308,30.0565 C119.308,30.3738349 119.373333,30.6421656 119.504,30.8615 C119.634667,31.0808344 119.807332,31.2628326 120.022,31.4075 C120.236668,31.5521674 120.481665,31.6688329 120.757,31.7575 C121.032335,31.8461671 121.314665,31.9231663 121.604,31.9885 C122.313337,32.1378341 122.866331,32.2871659 123.263,32.4365 C123.659669,32.5858341 123.858,32.8098318 123.858,33.1085 C123.858,33.2858342 123.816,33.4328327 123.732,33.5495 C123.648,33.6661672 123.543001,33.7594996 123.417,33.8295 C123.290999,33.8995003 123.151001,33.9508332 122.997,33.9835 C122.842999,34.0161668 122.696001,34.0325 122.556,34.0325 C122.359999,34.0325 122.171001,34.0091669 121.989,33.9625 C121.806999,33.9158331 121.646001,33.8435005 121.506,33.7455 C121.365999,33.6474995 121.251667,33.5215008 121.163,33.3675 C121.074333,33.2134992 121.03,33.0291677 121.03,32.8145 Z"/>
    <path fill="#556677" d="M133,1 C134.7,1 136,2.3 136,4 L136,43 C136,44.7 134.7,46 133,46 L4,46 C2.3,46 1,44.7 1,43 L1,4 C1,2.3 2.3,1 4,1 L133,1 L133,1 Z M133,0 L4,0 C1.8,0 0,1.8 0,4 L0,43 C0,45.2 1.8,47 4,47 L133,47 C135.2,47 137,45.2 137,43 L137,4 C137,1.8 135.2,0 133,0 L133,0 Z"/>
    <path fill="#CC1111" d="M19.9,15.9 C21.7,15.9 23.1,17.3 23.1,19.1 C23.1,20.4 22.4,22.5 21.5,24.9 C22.3,26.9 23.4,29.1 24.5,31.2 C26.8,26.8 29,21.7 29,19.2 C29,14.2 24.9,10.1 19.9,10.1 C14.9,10.1 10.8,14.2 10.8,19.2 C10.8,24 19.1,38.1 19.9,39.5 C20.2,39 21.4,37 22.9,34.3 C20.2,29.4 16.7,22.3 16.7,19.2 C16.6,17.3 18.1,15.9 19.9,15.9"/>
  </g>
</svg>
